<mxfile host="app.diagrams.net" modified="2022-01-06T07:05:06.784Z" agent="5.0 (Macintosh; Intel Mac OS X 10_15_7) AppleWebKit/537.36 (KHTML, like Gecko) Chrome/96.0.4664.110 Safari/537.36" etag="_y9CXBnhqD2gQqolyo5c" version="16.2.2" type="github">
  <diagram id="PRa-raVsTQR9MWIXIn6m" name="Page-1">
    <mxGraphModel dx="998" dy="631" grid="1" gridSize="10" guides="1" tooltips="1" connect="1" arrows="1" fold="1" page="1" pageScale="1" pageWidth="2336" pageHeight="1654" math="0" shadow="0">
      <root>
        <mxCell id="0" />
        <mxCell id="1" parent="0" />
        <mxCell id="qaBthKyMaD8bt95HpR02-3" style="edgeStyle=orthogonalEdgeStyle;rounded=0;orthogonalLoop=1;jettySize=auto;html=1;" edge="1" parent="1" source="qaBthKyMaD8bt95HpR02-1" target="qaBthKyMaD8bt95HpR02-2">
          <mxGeometry relative="1" as="geometry" />
        </mxCell>
        <mxCell id="qaBthKyMaD8bt95HpR02-5" style="edgeStyle=orthogonalEdgeStyle;rounded=0;orthogonalLoop=1;jettySize=auto;html=1;entryX=0.5;entryY=0;entryDx=0;entryDy=0;" edge="1" parent="1" source="qaBthKyMaD8bt95HpR02-1" target="qaBthKyMaD8bt95HpR02-4">
          <mxGeometry relative="1" as="geometry" />
        </mxCell>
        <mxCell id="qaBthKyMaD8bt95HpR02-8" style="edgeStyle=orthogonalEdgeStyle;rounded=0;orthogonalLoop=1;jettySize=auto;html=1;entryX=0;entryY=0.5;entryDx=0;entryDy=0;exitX=1;exitY=0.75;exitDx=0;exitDy=0;" edge="1" parent="1" source="qaBthKyMaD8bt95HpR02-1" target="qaBthKyMaD8bt95HpR02-7">
          <mxGeometry relative="1" as="geometry" />
        </mxCell>
        <mxCell id="qaBthKyMaD8bt95HpR02-1" value="&lt;b&gt;Policy Management Service&lt;/b&gt;" style="rounded=0;whiteSpace=wrap;html=1;" vertex="1" parent="1">
          <mxGeometry x="400" y="265" width="240" height="70" as="geometry" />
        </mxCell>
        <mxCell id="qaBthKyMaD8bt95HpR02-2" value="moisp_pms&lt;br&gt;DB" style="shape=cylinder3;whiteSpace=wrap;html=1;boundedLbl=1;backgroundOutline=1;size=15;" vertex="1" parent="1">
          <mxGeometry x="790" y="260" width="70" height="80" as="geometry" />
        </mxCell>
        <mxCell id="qaBthKyMaD8bt95HpR02-4" value="Auditmanager" style="rounded=0;whiteSpace=wrap;html=1;" vertex="1" parent="1">
          <mxGeometry x="460" y="405" width="120" height="60" as="geometry" />
        </mxCell>
        <mxCell id="qaBthKyMaD8bt95HpR02-6" value="Audit logs" style="text;html=1;strokeColor=none;fillColor=none;align=center;verticalAlign=middle;whiteSpace=wrap;rounded=0;" vertex="1" parent="1">
          <mxGeometry x="523" y="354" width="60" height="30" as="geometry" />
        </mxCell>
        <mxCell id="qaBthKyMaD8bt95HpR02-7" value="Datashare" style="rounded=0;whiteSpace=wrap;html=1;" vertex="1" parent="1">
          <mxGeometry x="730" y="405" width="120" height="60" as="geometry" />
        </mxCell>
        <mxCell id="qaBthKyMaD8bt95HpR02-9" value="Fetch policy details" style="text;html=1;strokeColor=none;fillColor=none;align=center;verticalAlign=middle;whiteSpace=wrap;rounded=0;" vertex="1" parent="1">
          <mxGeometry x="675" y="355" width="60" height="30" as="geometry" />
        </mxCell>
        <mxCell id="qaBthKyMaD8bt95HpR02-10" value="1" style="ellipse;whiteSpace=wrap;html=1;aspect=fixed;" vertex="1" parent="1">
          <mxGeometry x="489" y="355" width="25" height="25" as="geometry" />
        </mxCell>
        <mxCell id="qaBthKyMaD8bt95HpR02-11" value="2" style="ellipse;whiteSpace=wrap;html=1;aspect=fixed;" vertex="1" parent="1">
          <mxGeometry x="705" y="270" width="25" height="25" as="geometry" />
        </mxCell>
        <mxCell id="qaBthKyMaD8bt95HpR02-12" value="3" style="ellipse;whiteSpace=wrap;html=1;aspect=fixed;" vertex="1" parent="1">
          <mxGeometry x="650" y="370" width="25" height="25" as="geometry" />
        </mxCell>
      </root>
    </mxGraphModel>
  </diagram>
</mxfile>
